<svg xmlns="http://www.w3.org/2000/svg" xmlns:xlink="http://www.w3.org/1999/xlink" width="100" zoomAndPan="magnify" viewBox="0 0 75 74.999997" height="100" preserveAspectRatio="xMidYMid meet" version="1.0"><defs><clipPath id="eb87a7713d"><path d="M 16.425781 16.726562 L 58.574219 16.726562 L 58.574219 58.574219 L 16.425781 58.574219 Z M 16.425781 16.726562 " clip-rule="nonzero"/></clipPath></defs><g clip-path="url(#eb87a7713d)"><path fill="#ffffff" d="M 16.425781 16.726562 L 58.601562 16.726562 L 58.601562 58.574219 L 16.425781 58.574219 Z M 16.425781 16.726562 " fill-opacity="1" fill-rule="nonzero"/></g><path fill="#100f0d" d="M 46.875 24.105469 C 42.140625 24.105469 38.839844 26.226562 38.839844 28.125 L 38.839844 47.757812 C 40.789062 46.386719 43.640625 45.535156 46.875 45.535156 C 50.109375 45.535156 52.960938 46.386719 54.910156 47.757812 L 54.910156 28.125 C 54.910156 26.226562 51.609375 24.105469 46.875 24.105469 " fill-opacity="1" fill-rule="nonzero"/><path fill="#100f0d" d="M 57.589844 52.230469 C 57.589844 52.96875 56.988281 53.570312 56.25 53.570312 L 18.75 53.570312 C 18.011719 53.570312 17.410156 52.96875 17.410156 52.230469 L 17.410156 28.125 C 17.410156 24.367188 22.117188 21.429688 28.125 21.429688 C 32.210938 21.429688 35.691406 22.789062 37.5 24.839844 C 39.308594 22.789062 42.789062 21.429688 46.875 21.429688 C 52.878906 21.429688 57.589844 24.367188 57.589844 28.125 Z M 37.5 0 C 16.820312 0 0 16.820312 0 37.5 C 0 58.179688 16.820312 75 37.5 75 C 58.179688 75 75 58.179688 75 37.5 C 75 16.820312 58.179688 0 37.5 0 " fill-opacity="1" fill-rule="nonzero"/><path fill="#100f0d" d="M 28.125 48.214844 C 24.5 48.214844 21.722656 49.453125 20.613281 50.894531 L 35.636719 50.894531 C 34.527344 49.453125 31.75 48.214844 28.125 48.214844 " fill-opacity="1" fill-rule="nonzero"/><path fill="#100f0d" d="M 46.875 48.214844 C 43.25 48.214844 40.472656 49.453125 39.363281 50.894531 L 54.386719 50.894531 C 53.277344 49.453125 50.5 48.214844 46.875 48.214844 " fill-opacity="1" fill-rule="nonzero"/><path fill="#100f0d" d="M 28.125 24.105469 C 23.390625 24.105469 20.089844 26.226562 20.089844 28.125 L 20.089844 47.757812 C 22.039062 46.386719 24.890625 45.535156 28.125 45.535156 C 31.359375 45.535156 34.210938 46.386719 36.160156 47.757812 L 36.160156 28.125 C 36.160156 26.226562 32.859375 24.105469 28.125 24.105469 " fill-opacity="1" fill-rule="nonzero"/></svg>