<svg xmlns="http://www.w3.org/2000/svg" xmlns:xlink="http://www.w3.org/1999/xlink" width="100" zoomAndPan="magnify" viewBox="0 0 75 74.999997" height="100" preserveAspectRatio="xMidYMid meet" version="1.0"><defs><clipPath id="6c6d8dda5f"><path d="M 17.25 19.875 L 57.75 19.875 L 57.75 64.273438 L 17.25 64.273438 Z M 17.25 19.875 " clip-rule="nonzero"/></clipPath><clipPath id="a8ed947059"><path d="M 28.050781 15.976562 L 64.269531 15.976562 L 64.269531 55.800781 L 28.050781 55.800781 Z M 28.050781 15.976562 " clip-rule="nonzero"/></clipPath><clipPath id="c3fd849061"><path d="M 11.101562 13.6875 L 51.601562 13.6875 L 51.601562 58.085938 L 11.101562 58.085938 Z M 11.101562 13.6875 " clip-rule="nonzero"/></clipPath><clipPath id="0d2098358f"><path d="M 18.300781 9.675781 L 58.800781 9.675781 L 58.800781 54.074219 L 18.300781 54.074219 Z M 18.300781 9.675781 " clip-rule="nonzero"/></clipPath></defs><g clip-path="url(#6c6d8dda5f)"><path fill="#ffffff" d="M 17.25 19.875 L 57.75 19.875 L 57.75 64.328125 L 17.25 64.328125 Z M 17.25 19.875 " fill-opacity="1" fill-rule="nonzero"/></g><g clip-path="url(#a8ed947059)"><path fill="#ffffff" d="M 28.050781 15.976562 L 64.269531 15.976562 L 64.269531 55.730469 L 28.050781 55.730469 Z M 28.050781 15.976562 " fill-opacity="1" fill-rule="nonzero"/></g><g clip-path="url(#c3fd849061)"><path fill="#ffffff" d="M 11.101562 13.6875 L 51.601562 13.6875 L 51.601562 58.140625 L 11.101562 58.140625 Z M 11.101562 13.6875 " fill-opacity="1" fill-rule="nonzero"/></g><g clip-path="url(#0d2098358f)"><path fill="#ffffff" d="M 18.300781 9.675781 L 58.800781 9.675781 L 58.800781 54.128906 L 18.300781 54.128906 Z M 18.300781 9.675781 " fill-opacity="1" fill-rule="nonzero"/></g><path fill="#000000" d="M 34.25 55.625 L 34.25 55.957031 C 34.25 57.75 35.707031 59.207031 37.5 59.207031 C 39.292969 59.207031 40.75 57.75 40.75 55.957031 L 40.75 55.628906 C 40.75 55.480469 40.753906 55.335938 40.757812 55.191406 L 34.242188 55.191406 C 34.246094 55.335938 34.25 55.480469 34.25 55.625 " fill-opacity="1" fill-rule="nonzero"/><path fill="#000000" d="M 45.210938 28.707031 C 43.0625 26.78125 40.367188 25.761719 37.511719 25.761719 C 37.070312 25.761719 36.625 25.785156 36.175781 25.835938 C 30.847656 26.421875 26.574219 30.71875 26.003906 36.046875 C 25.597656 39.886719 27.019531 43.53125 29.910156 46.046875 C 31.570312 47.492188 32.804688 49.332031 33.523438 51.371094 L 41.5 51.371094 C 42.234375 49.335938 43.488281 47.46875 45.175781 45.96875 C 47.648438 43.777344 49.0625 40.625 49.0625 37.324219 C 49.0625 34.039062 47.660156 30.898438 45.210938 28.707031 " fill-opacity="1" fill-rule="nonzero"/><path fill="#000000" d="M 61.277344 39.566406 L 57.460938 39.566406 C 56.40625 39.566406 55.550781 38.710938 55.550781 37.65625 C 55.550781 36.601562 56.40625 35.746094 57.460938 35.746094 L 61.277344 35.746094 C 62.332031 35.746094 63.1875 36.601562 63.1875 37.65625 C 63.1875 38.710938 62.332031 39.566406 61.277344 39.566406 Z M 55.664062 55.820312 C 55.289062 56.195312 54.800781 56.378906 54.3125 56.378906 C 53.824219 56.378906 53.335938 56.195312 52.960938 55.820312 L 50.265625 53.125 C 49.519531 52.378906 49.519531 51.167969 50.265625 50.421875 C 51.011719 49.675781 52.21875 49.675781 52.964844 50.421875 L 55.664062 53.121094 C 56.410156 53.863281 56.410156 55.074219 55.664062 55.820312 Z M 47.714844 48.824219 C 45.714844 50.601562 44.570312 53.078125 44.570312 55.628906 L 44.570312 55.957031 C 44.570312 59.855469 41.398438 63.027344 37.5 63.027344 C 33.601562 63.027344 30.429688 59.855469 30.429688 55.957031 L 30.429688 55.625 C 30.429688 53.042969 29.328125 50.601562 27.402344 48.929688 C 23.613281 45.632812 21.671875 40.664062 22.207031 35.640625 C 22.960938 28.542969 28.660156 22.820312 35.753906 22.035156 C 40.132812 21.554688 44.507812 22.945312 47.757812 25.859375 C 51.015625 28.777344 52.882812 32.957031 52.882812 37.324219 C 52.882812 41.714844 51 45.90625 47.714844 48.824219 Z M 24.734375 53.125 L 22.039062 55.820312 C 21.664062 56.195312 21.175781 56.378906 20.6875 56.378906 C 20.199219 56.378906 19.710938 56.195312 19.335938 55.820312 C 18.589844 55.074219 18.589844 53.863281 19.335938 53.121094 L 22.035156 50.421875 C 22.78125 49.675781 23.988281 49.675781 24.734375 50.421875 C 25.480469 51.167969 25.480469 52.378906 24.734375 53.125 Z M 13.722656 39.566406 C 12.667969 39.566406 11.8125 38.710938 11.8125 37.65625 C 11.8125 36.601562 12.667969 35.746094 13.722656 35.746094 L 17.539062 35.746094 C 18.59375 35.746094 19.449219 36.601562 19.449219 37.65625 C 19.449219 38.710938 18.59375 39.566406 17.539062 39.566406 Z M 19.335938 19.496094 C 20.082031 18.75 21.292969 18.75 22.039062 19.496094 L 24.734375 22.191406 C 25.480469 22.9375 25.480469 24.148438 24.734375 24.894531 C 24.363281 25.265625 23.871094 25.453125 23.382812 25.453125 C 22.894531 25.453125 22.40625 25.265625 22.035156 24.894531 L 19.335938 22.195312 C 18.589844 21.449219 18.589844 20.242188 19.335938 19.496094 Z M 35.589844 13.882812 C 35.589844 12.828125 36.445312 11.972656 37.5 11.972656 C 38.554688 11.972656 39.410156 12.828125 39.410156 13.882812 L 39.410156 17.695312 C 39.410156 18.75 38.554688 19.605469 37.5 19.605469 C 36.445312 19.605469 35.589844 18.75 35.589844 17.695312 Z M 50.265625 22.191406 L 52.960938 19.496094 C 53.707031 18.75 54.917969 18.75 55.664062 19.496094 C 56.410156 20.242188 56.410156 21.449219 55.664062 22.195312 L 52.964844 24.894531 C 52.59375 25.265625 52.105469 25.453125 51.617188 25.453125 C 51.128906 25.453125 50.636719 25.265625 50.265625 24.894531 C 49.519531 24.148438 49.519531 22.9375 50.265625 22.191406 Z M 37.5 0 C 27.484375 0 18.066406 3.902344 10.984375 10.984375 C 3.902344 18.066406 0 27.484375 0 37.5 C 0 47.515625 3.902344 56.933594 10.984375 64.015625 C 18.066406 71.097656 27.484375 75 37.5 75 C 47.515625 75 56.933594 71.097656 64.015625 64.015625 C 71.097656 56.933594 75 47.515625 75 37.5 C 75 27.484375 71.097656 18.066406 64.015625 10.984375 C 56.933594 3.902344 47.515625 0 37.5 0 " fill-opacity="1" fill-rule="nonzero"/></svg>