<svg xmlns="http://www.w3.org/2000/svg" xmlns:xlink="http://www.w3.org/1999/xlink" width="100" zoomAndPan="magnify" viewBox="0 0 75 74.999997" height="100" preserveAspectRatio="xMidYMid meet" version="1.0"><defs><clipPath id="1c05b0e65c"><path d="M 15.074219 15.148438 L 59.925781 15.148438 L 59.925781 59.851562 L 15.074219 59.851562 Z M 15.074219 15.148438 " clip-rule="nonzero"/></clipPath></defs><g clip-path="url(#1c05b0e65c)"><path fill="#ffffff" d="M 15.074219 15.148438 L 59.949219 15.148438 L 59.949219 59.851562 L 15.074219 59.851562 Z M 15.074219 15.148438 " fill-opacity="1" fill-rule="nonzero"/></g><path fill="#000000" d="M 37.5 0 C 36.273438 0 35.046875 0.0585938 33.824219 0.179688 C 32.601562 0.300781 31.390625 0.480469 30.183594 0.71875 C 28.980469 0.960938 27.789062 1.257812 26.613281 1.613281 C 25.4375 1.972656 24.285156 2.382812 23.148438 2.855469 C 22.015625 3.324219 20.90625 3.847656 19.824219 4.429688 C 18.738281 5.007812 17.6875 5.636719 16.667969 6.320312 C 15.644531 7.003906 14.660156 7.734375 13.710938 8.511719 C 12.761719 9.292969 11.851562 10.113281 10.984375 10.984375 C 10.113281 11.851562 9.292969 12.761719 8.511719 13.710938 C 7.734375 14.660156 7.003906 15.644531 6.320312 16.667969 C 5.636719 17.6875 5.007812 18.738281 4.429688 19.824219 C 3.847656 20.90625 3.324219 22.015625 2.855469 23.148438 C 2.382812 24.285156 1.972656 25.4375 1.613281 26.613281 C 1.257812 27.789062 0.960938 28.980469 0.71875 30.183594 C 0.480469 31.390625 0.300781 32.601562 0.179688 33.824219 C 0.0585938 35.046875 0 36.273438 0 37.5 C 0 38.726562 0.0585938 39.953125 0.179688 41.175781 C 0.300781 42.398438 0.480469 43.609375 0.71875 44.816406 C 0.960938 46.019531 1.257812 47.210938 1.613281 48.386719 C 1.972656 49.5625 2.382812 50.714844 2.855469 51.851562 C 3.324219 52.984375 3.847656 54.09375 4.429688 55.175781 C 5.007812 56.261719 5.636719 57.3125 6.320312 58.332031 C 7.003906 59.355469 7.734375 60.339844 8.511719 61.289062 C 9.292969 62.238281 10.113281 63.148438 10.984375 64.015625 C 11.851562 64.886719 12.761719 65.707031 13.710938 66.488281 C 14.660156 67.265625 15.644531 67.996094 16.667969 68.679688 C 17.6875 69.363281 18.738281 69.992188 19.824219 70.570312 C 20.90625 71.152344 22.015625 71.675781 23.148438 72.144531 C 24.285156 72.617188 25.4375 73.027344 26.613281 73.386719 C 27.789062 73.742188 28.980469 74.039062 30.183594 74.28125 C 31.390625 74.519531 32.601562 74.699219 33.824219 74.820312 C 35.046875 74.941406 36.273438 75 37.5 75 C 38.726562 75 39.953125 74.941406 41.175781 74.820312 C 42.398438 74.699219 43.609375 74.519531 44.816406 74.28125 C 46.019531 74.039062 47.210938 73.742188 48.386719 73.386719 C 49.5625 73.027344 50.714844 72.617188 51.851562 72.144531 C 52.984375 71.675781 54.09375 71.152344 55.175781 70.570312 C 56.261719 69.992188 57.3125 69.363281 58.332031 68.679688 C 59.355469 67.996094 60.339844 67.265625 61.289062 66.488281 C 62.238281 65.707031 63.148438 64.886719 64.015625 64.015625 C 64.886719 63.148438 65.707031 62.238281 66.488281 61.289062 C 67.265625 60.339844 67.996094 59.355469 68.679688 58.332031 C 69.363281 57.3125 69.992188 56.261719 70.570312 55.175781 C 71.152344 54.09375 71.675781 52.984375 72.144531 51.851562 C 72.617188 50.714844 73.027344 49.5625 73.386719 48.386719 C 73.742188 47.210938 74.039062 46.019531 74.28125 44.816406 C 74.519531 43.609375 74.699219 42.398438 74.820312 41.175781 C 74.941406 39.953125 75 38.726562 75 37.5 C 75 36.273438 74.941406 35.046875 74.820312 33.824219 C 74.699219 32.601562 74.519531 31.390625 74.28125 30.183594 C 74.039062 28.980469 73.742188 27.789062 73.386719 26.613281 C 73.027344 25.4375 72.617188 24.285156 72.144531 23.148438 C 71.675781 22.015625 71.152344 20.90625 70.570312 19.824219 C 69.992188 18.738281 69.363281 17.6875 68.679688 16.667969 C 67.996094 15.644531 67.265625 14.660156 66.488281 13.710938 C 65.707031 12.761719 64.886719 11.851562 64.015625 10.984375 C 63.148438 10.113281 62.238281 9.292969 61.289062 8.511719 C 60.339844 7.734375 59.355469 7.003906 58.332031 6.320312 C 57.3125 5.636719 56.261719 5.007812 55.175781 4.429688 C 54.09375 3.847656 52.984375 3.324219 51.851562 2.855469 C 50.714844 2.382812 49.5625 1.972656 48.386719 1.613281 C 47.210938 1.257812 46.019531 0.960938 44.816406 0.71875 C 43.609375 0.480469 42.398438 0.300781 41.175781 0.179688 C 39.953125 0.0585938 38.726562 0 37.5 0 Z M 34.820312 53.570312 L 18.75 53.570312 C 18.394531 53.570312 18.054688 53.503906 17.726562 53.367188 C 17.398438 53.230469 17.105469 53.039062 16.855469 52.785156 C 16.605469 52.535156 16.410156 52.246094 16.273438 51.917969 C 16.140625 51.589844 16.070312 51.25 16.070312 50.894531 C 16.070312 50.539062 16.140625 50.195312 16.273438 49.867188 C 16.410156 49.539062 16.605469 49.25 16.855469 49 C 17.105469 48.746094 17.398438 48.554688 17.726562 48.417969 C 18.054688 48.28125 18.394531 48.214844 18.75 48.214844 L 34.820312 48.214844 C 35.175781 48.214844 35.519531 48.28125 35.847656 48.417969 C 36.175781 48.554688 36.464844 48.746094 36.714844 49 C 36.964844 49.25 37.160156 49.539062 37.296875 49.867188 C 37.433594 50.195312 37.5 50.539062 37.5 50.894531 C 37.5 51.25 37.433594 51.589844 37.296875 51.917969 C 37.160156 52.246094 36.964844 52.535156 36.714844 52.785156 C 36.464844 53.039062 36.175781 53.230469 35.847656 53.367188 C 35.519531 53.503906 35.175781 53.570312 34.820312 53.570312 Z M 56.25 53.570312 L 53.570312 53.570312 L 53.570312 56.25 C 53.570312 56.605469 53.503906 56.945312 53.367188 57.273438 C 53.230469 57.601562 53.039062 57.894531 52.785156 58.144531 C 52.535156 58.394531 52.246094 58.589844 51.917969 58.726562 C 51.589844 58.859375 51.25 58.929688 50.894531 58.929688 C 50.539062 58.929688 50.195312 58.859375 49.867188 58.726562 C 49.539062 58.589844 49.25 58.394531 49 58.144531 C 48.746094 57.894531 48.554688 57.601562 48.417969 57.273438 C 48.28125 56.945312 48.214844 56.605469 48.214844 56.25 L 48.214844 53.570312 L 45.535156 53.570312 C 45.179688 53.570312 44.839844 53.503906 44.511719 53.367188 C 44.183594 53.230469 43.894531 53.039062 43.640625 52.785156 C 43.390625 52.535156 43.195312 52.246094 43.0625 51.917969 C 42.925781 51.589844 42.855469 51.25 42.855469 50.894531 C 42.855469 50.539062 42.925781 50.195312 43.0625 49.867188 C 43.195312 49.539062 43.390625 49.25 43.640625 49 C 43.894531 48.746094 44.183594 48.554688 44.511719 48.417969 C 44.839844 48.28125 45.179688 48.214844 45.535156 48.214844 L 48.214844 48.214844 L 48.214844 45.535156 C 48.214844 45.179688 48.28125 44.839844 48.417969 44.511719 C 48.554688 44.183594 48.746094 43.894531 49 43.640625 C 49.25 43.390625 49.539062 43.195312 49.867188 43.0625 C 50.195312 42.925781 50.539062 42.855469 50.894531 42.855469 C 51.25 42.855469 51.589844 42.925781 51.917969 43.0625 C 52.246094 43.195312 52.535156 43.390625 52.785156 43.640625 C 53.039062 43.894531 53.230469 44.183594 53.367188 44.511719 C 53.503906 44.839844 53.570312 45.179688 53.570312 45.535156 L 53.570312 48.214844 L 56.25 48.214844 C 56.605469 48.214844 56.945312 48.28125 57.273438 48.417969 C 57.601562 48.554688 57.894531 48.746094 58.144531 49 C 58.394531 49.25 58.589844 49.539062 58.726562 49.867188 C 58.859375 50.195312 58.929688 50.539062 58.929688 50.894531 C 58.929688 51.25 58.859375 51.589844 58.726562 51.917969 C 58.589844 52.246094 58.394531 52.535156 58.144531 52.785156 C 57.894531 53.039062 57.601562 53.230469 57.273438 53.367188 C 56.945312 53.503906 56.605469 53.570312 56.25 53.570312 Z M 56.25 40.179688 L 18.75 40.179688 C 18.394531 40.179688 18.054688 40.109375 17.726562 39.976562 C 17.398438 39.839844 17.105469 39.644531 16.855469 39.394531 C 16.605469 39.144531 16.410156 38.851562 16.273438 38.523438 C 16.140625 38.195312 16.070312 37.855469 16.070312 37.5 C 16.070312 37.144531 16.140625 36.804688 16.273438 36.476562 C 16.410156 36.148438 16.605469 35.855469 16.855469 35.605469 C 17.105469 35.355469 17.398438 35.160156 17.726562 35.023438 C 18.054688 34.890625 18.394531 34.820312 18.75 34.820312 L 56.25 34.820312 C 56.605469 34.820312 56.945312 34.890625 57.273438 35.023438 C 57.601562 35.160156 57.894531 35.355469 58.144531 35.605469 C 58.394531 35.855469 58.589844 36.148438 58.726562 36.476562 C 58.859375 36.804688 58.929688 37.144531 58.929688 37.5 C 58.929688 37.855469 58.859375 38.195312 58.726562 38.523438 C 58.589844 38.851562 58.394531 39.144531 58.144531 39.394531 C 57.894531 39.644531 57.601562 39.839844 57.273438 39.976562 C 56.945312 40.109375 56.605469 40.179688 56.25 40.179688 Z M 56.25 26.785156 L 18.75 26.785156 C 18.394531 26.785156 18.054688 26.71875 17.726562 26.582031 C 17.398438 26.445312 17.105469 26.253906 16.855469 26 C 16.605469 25.75 16.410156 25.460938 16.273438 25.132812 C 16.140625 24.804688 16.070312 24.460938 16.070312 24.105469 C 16.070312 23.75 16.140625 23.410156 16.273438 23.082031 C 16.410156 22.753906 16.605469 22.464844 16.855469 22.214844 C 17.105469 21.960938 17.398438 21.769531 17.726562 21.632812 C 18.054688 21.496094 18.394531 21.429688 18.75 21.429688 L 56.25 21.429688 C 56.605469 21.429688 56.945312 21.496094 57.273438 21.632812 C 57.601562 21.769531 57.894531 21.960938 58.144531 22.214844 C 58.394531 22.464844 58.589844 22.753906 58.726562 23.082031 C 58.859375 23.410156 58.929688 23.75 58.929688 24.105469 C 58.929688 24.460938 58.859375 24.804688 58.726562 25.132812 C 58.589844 25.460938 58.394531 25.75 58.144531 26 C 57.894531 26.253906 57.601562 26.445312 57.273438 26.582031 C 56.945312 26.71875 56.605469 26.785156 56.25 26.785156 Z M 56.25 26.785156 " fill-opacity="1" fill-rule="nonzero"/></svg>