<svg xmlns="http://www.w3.org/2000/svg" xmlns:xlink="http://www.w3.org/1999/xlink" width="100" zoomAndPan="magnify" viewBox="0 0 75 74.999997" height="100" preserveAspectRatio="xMidYMid meet" version="1.0"><defs><clipPath id="ae456f1e46"><path d="M 16.425781 16.574219 L 58.574219 16.574219 L 58.574219 58.425781 L 16.425781 58.425781 Z M 16.425781 16.574219 " clip-rule="nonzero"/></clipPath></defs><g clip-path="url(#ae456f1e46)"><path fill="#ffffff" d="M 16.425781 16.574219 L 58.601562 16.574219 L 58.601562 58.425781 L 16.425781 58.425781 Z M 16.425781 16.574219 " fill-opacity="1" fill-rule="nonzero"/></g><path fill="#000000" d="M 37.5 0 C 58.210938 0 75 16.789062 75 37.5 C 75 58.210938 58.210938 75 37.5 75 C 16.789062 75 0 58.210938 0 37.5 C 0 16.789062 16.789062 0 37.5 0 Z M 19.265625 28.460938 C 19.453125 31.351562 20.203125 33.441406 21.195312 35.769531 C 23.351562 40.84375 32.421875 49.34375 37.28125 52.21875 C 40.519531 54.132812 46.011719 56.308594 49.882812 54.949219 C 51.960938 54.222656 53.839844 52.625 54.953125 50.769531 C 56.375 48.398438 55.734375 47.683594 54.296875 46.097656 C 53.191406 44.875 51.878906 43.917969 50.582031 42.910156 L 49.203125 41.9375 C 48.304688 41.335938 47.328125 40.425781 45.898438 41.097656 C 44.945312 41.542969 44.488281 42.582031 43.78125 43.636719 C 42.621094 45.371094 42.699219 45.796875 41.3125 44.972656 C 39.023438 43.613281 30.132812 36.375 29.445312 33.554688 C 29.289062 32.921875 29.941406 32.609375 30.410156 32.257812 C 30.945312 31.847656 32.722656 30.574219 33.050781 30.242188 C 35.425781 27.839844 29.765625 22.101562 28.015625 20.5625 C 27 19.675781 26.179688 19.269531 24.609375 20.011719 C 23.277344 20.640625 22.25 21.5625 21.394531 22.578125 C 20.046875 24.175781 19.117188 26.234375 19.265625 28.460938 Z M 37.519531 31.691406 C 37.824219 34.078125 40.863281 32.515625 41.53125 35.714844 C 41.679688 36.421875 41.816406 36.675781 42.242188 37.058594 C 43.542969 38.222656 45.75 37.144531 45.472656 35.246094 C 45.128906 32.902344 43.746094 31.289062 42.289062 30.375 C 41.628906 29.957031 40.21875 29.304688 39.238281 29.414062 C 38.1875 29.527344 37.367188 30.484375 37.519531 31.691406 Z M 37.640625 25.617188 C 37.785156 26.503906 38.449219 27.222656 39.390625 27.324219 C 40.636719 27.460938 41.191406 27.394531 42.351562 27.832031 C 44.0625 28.476562 45.359375 29.601562 46.199219 30.863281 C 47.898438 33.414062 47.183594 35.101562 47.78125 36.230469 C 48.628906 37.835938 51.546875 37.570312 51.46875 34.980469 C 51.402344 32.761719 50.863281 31.144531 49.988281 29.496094 C 48.410156 26.527344 45.375 24.335938 42.03125 23.625 C 41.277344 23.464844 39.605469 23.226562 38.921875 23.503906 C 38.066406 23.851562 37.492188 24.707031 37.640625 25.617188 Z M 37.640625 25.617188 " fill-opacity="1" fill-rule="evenodd"/></svg>